<svg width="24" height="24" viewBox="0 0 24 24" fill="none" xmlns="http://www.w3.org/2000/svg">
<path fill-rule="evenodd" clip-rule="evenodd" d="M11.7458 0.25415C8.55561 0.25415 8.15626 0.267462 6.90338 0.324625C5.65284 0.381788 4.79854 0.580683 4.05151 0.871194C3.26845 1.16562 2.55823 1.62762 1.97094 2.22587C1.37364 2.81248 0.91136 3.52221 0.616261 4.30566C0.327315 5.05269 0.127637 5.90778 0.0704746 7.15831C0.0140949 8.41041 0 8.80898 0 11.9999C0 15.1908 0.0133119 15.5894 0.0704746 16.8423C0.127637 18.0928 0.326532 18.9471 0.617044 19.6942C0.911471 20.4772 1.37347 21.1874 1.97172 21.7747C2.55835 22.372 3.26807 22.8343 4.05151 23.1294C4.79854 23.4191 5.65284 23.618 6.90338 23.6752C8.15626 23.7324 8.55561 23.7457 11.7458 23.7457C14.9359 23.7457 15.3353 23.7324 16.5881 23.6752C17.8387 23.618 18.693 23.4191 19.44 23.1286C20.2231 22.8342 20.9333 22.3722 21.5206 21.774C22.1179 21.1873 22.5802 20.4776 22.8753 19.6942C23.165 18.9471 23.3639 18.0928 23.4211 16.8423C23.4782 15.5894 23.4915 15.1901 23.4915 11.9999C23.4915 8.80976 23.4782 8.41041 23.4211 7.15753C23.3639 5.90699 23.165 5.05269 22.8745 4.30566C22.5796 3.52187 22.1173 2.81185 21.5198 2.22509C20.9332 1.6278 20.2235 1.16551 19.44 0.870411C18.693 0.581466 17.8379 0.381788 16.5874 0.324625C15.3353 0.268245 14.9367 0.25415 11.7458 0.25415ZM11.7458 2.37074C14.8819 2.37074 15.2538 2.38248 16.4926 2.43886C17.6374 2.49133 18.2592 2.68161 18.6734 2.8437C19.2215 3.05591 19.6131 3.31118 20.0242 3.7215C20.4353 4.1326 20.6898 4.52413 20.902 5.07226C21.0633 5.4865 21.2543 6.10824 21.3068 7.25306C21.3632 8.49185 21.3749 8.86379 21.3749 11.9999C21.3749 15.136 21.3632 15.508 21.3068 16.7468C21.2543 17.8916 21.0641 18.5133 20.902 18.9276C20.714 19.4378 20.414 19.8993 20.0242 20.2783C19.6452 20.6683 19.1837 20.9682 18.6734 21.1561C18.2592 21.3174 17.6374 21.5085 16.4926 21.561C15.2538 21.6173 14.8827 21.6291 11.7458 21.6291C8.60886 21.6291 8.23769 21.6173 6.99891 21.561C5.85409 21.5085 5.23235 21.3182 4.81811 21.1561C4.30792 20.9681 3.84635 20.6682 3.46735 20.2783C3.07753 19.8993 2.77758 19.4377 2.58955 18.9276C2.42824 18.5133 2.23718 17.8916 2.18471 16.7468C2.12833 15.508 2.11659 15.136 2.11659 11.9999C2.11659 8.86379 2.12833 8.49185 2.18471 7.25306C2.23718 6.10824 2.42746 5.4865 2.58955 5.07226C2.80176 4.52413 3.05703 4.1326 3.46735 3.7215C3.8463 3.33158 4.30788 3.03161 4.81811 2.8437C5.23235 2.68239 5.85409 2.49133 6.99891 2.43886C8.23769 2.38248 8.60964 2.37074 11.7458 2.37074Z" fill="white"/>
<path fill-rule="evenodd" clip-rule="evenodd" d="M11.7458 15.919C11.2311 15.919 10.7214 15.8176 10.246 15.6207C9.77046 15.4237 9.33841 15.135 8.97448 14.7711C8.61055 14.4072 8.32187 13.9751 8.12491 13.4996C7.92796 13.0241 7.82658 12.5145 7.82658 11.9998C7.82658 11.4852 7.92796 10.9755 8.12491 10.5C8.32187 10.0245 8.61055 9.5925 8.97448 9.22857C9.33841 8.86464 9.77046 8.57596 10.246 8.379C10.7214 8.18204 11.2311 8.08067 11.7458 8.08067C12.7852 8.08067 13.782 8.49358 14.517 9.22857C15.252 9.96356 15.6649 10.9604 15.6649 11.9998C15.6649 13.0393 15.252 14.0361 14.517 14.7711C13.782 15.5061 12.7852 15.919 11.7458 15.919ZM11.7458 5.96252C10.1446 5.96252 8.60894 6.59859 7.47672 7.73081C6.3445 8.86303 5.70843 10.3986 5.70843 11.9998C5.70843 13.601 6.3445 15.1367 7.47672 16.2689C8.60894 17.4011 10.1446 18.0372 11.7458 18.0372C13.3469 18.0372 14.8826 17.4011 16.0148 16.2689C17.147 15.1367 17.7831 13.601 17.7831 11.9998C17.7831 10.3986 17.147 8.86303 16.0148 7.73081C14.8826 6.59859 13.3469 5.96252 11.7458 5.96252ZM19.5395 5.85289C19.5395 6.23138 19.3891 6.59438 19.1215 6.86201C18.8538 7.12965 18.4908 7.28 18.1123 7.28C17.7339 7.28 17.3709 7.12965 17.1032 6.86201C16.8356 6.59438 16.6852 6.23138 16.6852 5.85289C16.6852 5.4744 16.8356 5.11141 17.1032 4.84377C17.3709 4.57614 17.7339 4.42578 18.1123 4.42578C18.4908 4.42578 18.8538 4.57614 19.1215 4.84377C19.3891 5.11141 19.5395 5.4744 19.5395 5.85289Z" fill="white"/>
</svg>
