<svg width="24" height="24" viewBox="0 0 24 24" fill="none" xmlns="http://www.w3.org/2000/svg">
<path d="M23.4915 1.98147V22.0184C23.4915 22.4765 23.3095 22.9158 22.9856 23.2398C22.6617 23.5637 22.2223 23.7457 21.7642 23.7457H1.72732C1.2692 23.7457 0.829855 23.5637 0.50592 23.2398C0.181985 22.9158 0 22.4765 0 22.0184L0 1.98147C0 1.52336 0.181985 1.08401 0.50592 0.76007C0.829855 0.436135 1.2692 0.25415 1.72732 0.25415L21.7642 0.25415C22.2223 0.25415 22.6617 0.436135 22.9856 0.76007C23.3095 1.08401 23.4915 1.52336 23.4915 1.98147ZM6.90927 9.2362H3.45464V20.291H6.90927V9.2362ZM7.22019 5.4361C7.22201 5.17479 7.17234 4.91567 7.07402 4.67355C6.9757 4.43144 6.83065 4.21105 6.64716 4.02499C6.46366 3.83893 6.24531 3.69084 6.00458 3.58916C5.76385 3.48749 5.50545 3.43422 5.24414 3.43242H5.18195C4.65054 3.43242 4.1409 3.64352 3.76513 4.01928C3.38937 4.39505 3.17827 4.90469 3.17827 5.4361C3.17827 5.96752 3.38937 6.47716 3.76513 6.85293C4.1409 7.22869 4.65054 7.43979 5.18195 7.43979C5.44329 7.44622 5.70333 7.4011 5.94721 7.30699C6.1911 7.21289 6.41405 7.07165 6.60334 6.89135C6.79262 6.71105 6.94452 6.49522 7.05037 6.25619C7.15621 6.01716 7.21391 5.75962 7.22019 5.49829V5.4361ZM20.0369 13.5752C20.0369 10.2519 17.9227 8.95983 15.8222 8.95983C15.1345 8.9254 14.4498 9.07188 13.8363 9.38466C13.2229 9.69744 12.7022 10.1656 12.3261 10.7424H12.2294V9.2362H8.98205V20.291H12.4367V14.4112C12.3868 13.8091 12.5764 13.2115 12.9645 12.7483C13.3527 12.2852 13.9078 11.9939 14.5095 11.9377H14.6407C15.7393 11.9377 16.5546 12.6287 16.5546 14.3698V20.291H20.0093L20.0369 13.5752Z" fill="white"/>
</svg>
