<svg width="17" height="14" viewBox="0 0 17 14" fill="none" xmlns="http://www.w3.org/2000/svg">
<path d="M0 13.1177V9.2504C0 8.17614 0.209197 7.09058 0.62759 5.99371C1.05729 4.88554 1.61138 3.85651 2.28986 2.90665C2.97964 1.94547 3.69204 1.15392 4.42706 0.531982L7.95513 2.46564C7.3445 3.46074 6.85826 4.50107 6.49641 5.58663C6.13455 6.66088 5.95928 7.87648 5.97059 9.23343V13.1177H0ZM8.51487 13.1177V9.2504C8.51487 8.17614 8.72407 7.09058 9.14246 5.99371C9.57217 4.88554 10.1263 3.85651 10.8047 2.90665C11.4945 1.94547 12.2069 1.15392 12.9419 0.531982L16.47 2.46564C15.8594 3.46074 15.3731 4.50107 15.0113 5.58663C14.6494 6.66088 14.4742 7.87648 14.4855 9.23343V13.1177H8.51487Z" fill="#FF5C72"/>
</svg>
