<svg width="27" height="22" viewBox="0 0 27 22" fill="none" xmlns="http://www.w3.org/2000/svg">
<path d="M23.4295 5.83933C23.4454 6.06943 23.4454 6.29954 23.4454 6.53176C23.4454 13.6078 18.0586 21.7686 8.20854 21.7686V21.7644C5.29881 21.7686 2.44952 20.9352 0 19.3636C0.423099 19.4145 0.848318 19.44 1.2746 19.441C3.68594 19.4432 6.02836 18.6341 7.92541 17.1442C5.63389 17.1007 3.62444 15.6067 2.92246 13.4254C3.72518 13.5802 4.55229 13.5484 5.34016 13.3332C2.84187 12.8284 1.04449 10.6334 1.04449 8.08419C1.04449 8.06086 1.04449 8.03859 1.04449 8.01632C1.78889 8.43094 2.62236 8.66104 3.47492 8.68649C1.1219 7.11392 0.396589 3.98363 1.81752 1.53623C4.53638 4.88179 8.54787 6.91563 12.8541 7.13089C12.4226 5.27095 13.0121 3.32194 14.4034 2.01447C16.5602 -0.0130104 19.9524 0.0909086 21.9799 2.2467C23.1792 2.01023 24.3287 1.57016 25.3806 0.94665C24.9809 2.18625 24.1442 3.23923 23.0265 3.90834C24.088 3.78321 25.1251 3.49903 26.1017 3.06532C25.3827 4.14269 24.4772 5.08114 23.4295 5.83933Z" fill="white"/>
</svg>
