<svg width="166" height="18" viewBox="0 0 166 18" fill="none" xmlns="http://www.w3.org/2000/svg">
<path d="M0.115798 11.3479H3.82124C3.82124 12.7954 5.15288 14.2428 12.9112 14.2428C20.7852 14.2428 22.2327 13.2006 22.2327 11.869C22.2327 11.1163 21.6537 10.6531 20.0326 10.3637C18.1798 10.0742 14.3586 10.0163 11.6374 9.95838C8.97412 9.84258 4.57391 9.61099 2.66329 8.97412C0.92636 8.39514 0 7.17929 0 5.55816C0 2.48959 4.05283 0 12.8533 0C23.2748 0 25.2433 2.77908 25.2433 5.73185H21.5379C21.5379 4.05282 19.5694 3.01067 12.8533 3.01067C6.83191 3.01067 4.05283 3.87913 4.05283 5.32657C4.05283 6.07924 4.57391 6.48452 5.84765 6.77401C7.29509 7.0635 11.4058 7.17929 14.3586 7.29509C17.6009 7.41088 21.1326 7.52668 23.2748 8.16355C25.3591 8.74253 26.2855 10.0163 26.2855 11.6374C26.2855 14.1849 24.317 17.2535 12.9112 17.2535C1.38954 17.1956 0.115798 13.4322 0.115798 11.3479Z" fill="#234C87"/>
<path d="M30.1646 0.347412H36.7649L45.8549 12.6796H45.9127L54.9448 0.347412H61.3714V16.9061H57.3186V3.30019L47.3602 16.9061H44.1758L34.1595 3.30019H34.1016V16.9061H30.2225V0.347412H30.1646Z" fill="#234C87"/>
<path d="M66.119 0.347412H70.1718V16.9061H66.119V0.347412Z" fill="#234C87"/>
<path d="M74.9194 0.347412H86.4989C96.7468 0.347412 100.279 4.05286 100.279 8.62676C100.279 13.8954 96.4573 16.9061 87.3095 16.9061H74.9194V0.347412ZM87.1937 13.8375C93.1572 13.8375 96.2257 12.3322 96.2257 8.62676C96.2257 5.73189 93.8519 3.41598 86.6726 3.41598H78.9723V13.8375H87.1937Z" fill="#234C87"/>
<path d="M104.273 0.347412H108.326V16.9061H104.273V0.347412Z" fill="#234C87"/>
<path d="M112.379 8.80043C112.379 4.05283 116.779 0 126.506 0C136.059 0 139.244 3.24226 139.244 6.31083C139.244 6.36873 139.244 6.60032 139.244 6.83191H135.538C135.538 6.65822 135.538 6.60032 135.538 6.54242C135.538 4.92129 133.28 3.12646 126.622 3.12646C119.674 3.12646 116.49 5.73186 116.49 8.85833C116.49 11.7532 119.327 14.3007 126.564 14.3007C132.527 14.3007 135.422 12.2743 135.422 10.9426V10.8268H125.406V8.56884H139.533V16.9061H136.175C136.233 16.0376 136.291 14.7639 136.349 13.4322H136.291C135.249 15.9218 131.543 17.2535 126.043 17.2535C116.2 17.1956 112.379 13.1427 112.379 8.80043Z" fill="#234C87"/>
<path d="M143.644 0.347412H165.124V3.41598H147.755V7.35302H161.534V9.78471H147.755V13.8375H165.471V16.9061H143.702V0.347412H143.644Z" fill="#234C87"/>
</svg>
